HIERARCHY
ROOT hip
{
	OFFSET 0.000000 0.000000 0.000000
	CHANNELS 6 Xposition Yposition Zposition Xrotation Zrotation Yrotation 
	JOINT abdomen
	{
		OFFSET 0.000000 3.422050 0.000000
		CHANNELS 3 Xrotation Zrotation Yrotation 
		JOINT chest
		{
			OFFSET 0.000000 8.486693 -0.684411
			CHANNELS 3 Xrotation Zrotation Yrotation 
			JOINT neck
			{
				OFFSET 0.000000 10.266162 -0.273764
				CHANNELS 3 Xrotation Zrotation Yrotation 
				JOINT head
				{
					OFFSET 0.000000 3.148285 0.000000
					CHANNELS 3 Xrotation Zrotation Yrotation 
					End Site
					{
						OFFSET 0.000000 3.148289 0.000000
					}
				}
			}
			JOINT lCollar
			{
				OFFSET 3.422053 6.707223 -0.821293
				CHANNELS 3 Yrotation Zrotation Xrotation 
				JOINT lShldr
				{
					OFFSET 3.285171 0.000000 0.000000
					CHANNELS 3 Zrotation Yrotation Xrotation 
					JOINT lForeArm
					{
						OFFSET 10.129278 0.000000 0.000000
						CHANNELS 3 Yrotation Zrotation Xrotation 
						JOINT lHand
						{
							OFFSET 8.486692 0.000000 0.000000
							CHANNELS 3 Zrotation Yrotation Xrotation 
							End Site
							{
								OFFSET 4.106464 0.000000 0.000000
							}
						}
					}
				}
			}
			JOINT rCollar
			{
				OFFSET -3.558935 6.707223 -0.821293
				CHANNELS 3 Yrotation Zrotation Xrotation 
				JOINT rShldr
				{
					OFFSET -3.148289 0.000000 0.000000
					CHANNELS 3 Zrotation Yrotation Xrotation 
					JOINT rForeArm
					{
						OFFSET -10.266159 0.000000 0.000000
						CHANNELS 3 Yrotation Zrotation Xrotation 
						JOINT rHand
						{
							OFFSET -8.349810 0.000000 0.000000
							CHANNELS 3 Zrotation Yrotation Xrotation 
							End Site
							{
								OFFSET -4.106464 0.000000 0.000000
							}
						}
					}
				}
			}
		}
	}
	JOINT lThigh
	{
		OFFSET 5.338403 -1.642589 1.368821
		CHANNELS 3 Xrotation Zrotation Yrotation 
		JOINT lShin
		{
			OFFSET -2.053232 -20.121670 0.000000
			CHANNELS 3 Xrotation Zrotation Yrotation 
			JOINT lFoot
			{
				OFFSET 0.000000 -19.300380 -1.231939
				CHANNELS 3 Xrotation Yrotation Zrotation 
				End Site
				{
					OFFSET 0.000000 -2.463878 4.653993
				}
			}
		}
	}
	JOINT rThigh
	{
		OFFSET -5.338403 -1.642589 1.368821
		CHANNELS 3 Xrotation Zrotation Yrotation 
		JOINT rShin
		{
			OFFSET 2.053232 -20.121670 0.000000
			CHANNELS 3 Xrotation Zrotation Yrotation 
			JOINT rFoot
			{
				OFFSET 0.000000 -19.300380 -1.231939
				CHANNELS 3 Xrotation Yrotation Zrotation 
				End Site
				{
					OFFSET 0.000000 -2.463878 4.653993
				}
			}
		}
	}
}
MOTION
Frames: 8
Frame Time: 0.049868
-11.931445 21.742378 25.289274 0.007525 0.013024 168.958237 0.657471 2.893761 -0.270404 11.589662 4.743882 -1.091993 15.177013 -0.341853 0.005877 -31.962526 -0.289119 -0.023023 -35.617031 -0.241723 -27.659613 -79.212532 22.179022 28.205910 -28.403572 1.916234 25.698505 -21.925812 -24.696682 6.386187 -1.618008 6.847167 -14.527063 -11.042224 22.782248 -42.980419 80.165062 -11.746945 27.731443 0.474121 -3.971680 -26.930452 -10.252398 11.357345 -4.932990 106.313454 6.446199 1.166925 58.902386 0.651908 8.354459 -9.932675 5.278759 -7.201131 104.677307 -17.130684 -14.307082 59.708797 -8.759098 -4.566446 
-11.656303 21.742378 25.104645 0.007525 0.013024 168.958237 0.653659 2.903056 -0.274174 11.135432 5.131804 -1.083000 15.827394 -0.384697 0.004429 -31.331944 -0.325102 -0.027690 -35.090912 0.625159 -26.719076 -80.122253 22.627649 27.916840 -29.485968 1.788106 25.723101 -21.813225 -25.024309 6.578336 2.909161 4.383037 -10.039645 -12.452223 21.103289 -50.168053 78.290642 -7.910308 27.684683 -0.608852 -3.890905 -26.896376 -9.700200 11.885674 -5.202275 106.251976 6.441777 1.160416 58.726807 0.204013 8.654699 -9.155448 6.724582 -7.925478 104.574890 -18.528379 -16.071926 59.708797 -8.759098 -4.566446 
-11.381161 21.742378 24.920017 0.007525 0.013024 168.958237 0.649848 2.912351 -0.277946 10.681019 5.519753 -1.077091 16.478031 -0.427538 0.002495 -30.701410 -0.361027 -0.032751 -34.579170 1.500140 -25.786674 -81.037216 23.071877 27.619186 -30.569416 1.659396 25.745296 -21.701546 -25.352253 6.770278 7.604633 2.286055 -5.382254 -13.605431 19.289085 -57.177658 76.419380 -4.047107 27.765001 -1.691382 -3.809523 -26.863848 -9.149538 12.416428 -5.466826 106.190506 6.437350 1.153912 58.553593 -0.244760 8.953545 -8.394742 8.178832 -8.631821 104.517479 -19.926765 -17.847097 59.708797 -8.759098 -4.566446 
-11.106019 21.742378 24.735390 0.007525 0.013024 168.958237 0.646035 2.921644 -0.281718 10.226398 5.907685 -1.074272 17.128889 -0.470369 0.000073 -30.070976 -0.396890 -0.038207 -34.081837 2.382652 -24.862324 -81.957405 23.511497 27.312943 -31.653740 1.530173 25.765072 -21.590799 -25.680523 6.962029 12.125921 -0.180381 -0.902146 -15.335117 17.909321 -64.499954 74.539375 -0.172154 27.972269 -2.773279 -3.727579 -26.832884 -8.600397 12.949496 -5.726615 106.129028 6.432916 1.147412 58.382736 -0.694373 9.251016 -7.650169 9.640299 -9.320477 104.506073 -21.323406 -19.633617 59.708797 -8.759098 -4.566446 
-10.830877 21.742378 24.550760 0.007525 0.013024 168.958237 0.642222 2.930939 -0.285490 9.771550 6.295551 -1.074548 17.779917 -0.513180 -0.002836 -29.440674 -0.432683 -0.044056 -33.598946 3.272127 -23.945908 -82.882820 23.946325 26.998144 -32.738731 1.400503 25.782400 -21.480970 -26.009087 7.153584 16.829739 -2.278489 3.762098 -16.859434 16.326763 -71.745415 72.638710 3.699354 28.307720 -3.854356 -3.645119 -26.803501 -8.052749 13.484757 -5.981610 106.067551 6.428475 1.140918 58.214214 -1.144789 9.547130 -6.921337 11.107791 -9.991786 104.541565 -22.715857 -21.432543 59.708797 -8.759098 -4.566446 
-10.555736 21.742378 24.366133 0.007525 0.013024 168.958237 0.638408 2.940233 -0.289264 9.316466 6.683311 -1.077922 18.431080 -0.555964 -0.006231 -28.810520 -0.468399 -0.050297 -33.130478 4.167995 -23.037292 -83.813393 24.376158 26.674814 -33.824226 1.270458 25.797281 -21.372078 -26.337946 7.344957 21.341640 -4.742056 8.233931 -18.148840 14.581296 -78.859581 70.705345 7.552015 28.773897 -4.934422 -3.562186 -26.775694 -7.506571 14.022098 -6.231782 106.006081 6.424026 1.134428 58.048042 -1.595968 9.841911 -6.207840 12.580120 -10.646063 104.624908 -24.101667 -23.244978 59.708797 -8.759098 -4.566446 
-10.280593 21.742378 24.181503 0.007525 0.013024 168.958237 0.634593 2.949521 -0.293037 8.861122 7.070912 -1.084400 19.082335 -0.598713 -0.010114 -28.180576 -0.504033 -0.056928 -32.676460 5.069691 -22.136343 -84.749069 24.800804 26.342985 -34.910038 1.140106 25.809700 -21.264114 -26.667078 7.536150 26.051115 -6.838747 12.904785 -19.768406 13.104733 -86.132027 68.726898 11.370347 29.374674 -6.013292 -3.478829 -26.749498 -6.961843 14.561410 -6.477108 105.944626 6.419574 1.127944 57.884186 -2.047873 10.135374 -5.509277 14.056125 -11.283645 104.757027 -25.478432 -25.072067 59.708797 -8.759098 -4.566446 
-10.005451 21.742378 23.996876 0.007525 0.013024 168.958237 0.630779 2.958820 -0.296812 8.405500 7.458314 -1.093987 19.733637 -0.641417 -0.014482 -27.550882 -0.539578 -0.063947 -32.236866 5.976650 -21.242907 -85.689827 25.220076 26.002703 -35.995964 1.009520 25.819649 -21.157087 -26.996471 7.727169 30.663128 -9.121053 17.475348 -21.174809 11.442062 -93.315933 66.690567 15.138963 30.115274 -7.090779 -3.395090 -26.724903 -6.418534 15.102571 -6.717556 105.883141 6.415110 1.121463 57.722645 -2.500465 10.427544 -4.825241 15.534662 -11.904855 104.938789 -26.843729 -26.914968 59.708797 -8.759098 -4.566446 
